<?xml version="1.0" encoding="utf-8"?>
<!-- Generator: Adobe Illustrator 25.4.1, SVG Export Plug-In . SVG Version: 6.00 Build 0)  -->
<svg version="1.1" id="Layer_1" xmlns="http://www.w3.org/2000/svg" xmlns:xlink="http://www.w3.org/1999/xlink" x="0px" y="0px"
	 viewBox="0 0 22.3 23.8" style="enable-background:new 0 0 22.3 23.8;" xml:space="preserve">
<g>
	<g>
		<g>
			<path d="M5.9,5.1h6.8c0.5,0,0.8-0.4,0.8-0.8V2.6c0-0.5-0.4-0.8-0.8-0.8h-1c-0.3-0.7-0.8-1.3-1.6-1.6C8.9-0.3,7.4,0.4,6.9,1.7h-1
				c-0.5,0-0.8,0.4-0.8,0.8v1.7C5.1,4.7,5.5,5.1,5.9,5.1z"/>
			<path d="M17.2,20.6c-1.3,0-2.5-0.4-3.4-1.1H7.6c-0.5,0-0.8-0.4-0.8-0.8c0-0.5,0.4-0.8,0.8-0.8h4.4c-0.5-0.8-0.8-1.6-1-2.5H7.6
				c-0.5,0-0.8-0.4-0.8-0.8c0-0.5,0.4-0.8,0.8-0.8h3.5c0.1-0.9,0.5-1.8,1-2.5H7.6c-0.5,0-0.8-0.4-0.8-0.8s0.4-0.8,0.8-0.8h6.1
				c1-0.7,2.2-1.1,3.4-1.1c0.5,0,1,0.1,1.5,0.2V5.1c0-1.4-1.1-2.5-2.5-2.5h-0.8v1.7c0,1.4-1.1,2.5-2.5,2.5H5.9
				c-1.4,0-2.5-1.1-2.5-2.5V2.6H2.5C1.1,2.6,0,3.7,0,5.1v16.1c0,1.4,1.1,2.5,2.5,2.5h13.6c1.4,0,2.5-1.1,2.5-2.5v-0.8
				C18.2,20.5,17.7,20.6,17.2,20.6z M3.9,19.5c-0.4,0-0.8-0.4-0.8-0.8c0-0.4,0.4-0.8,0.8-0.8c0.4,0,0.8,0.4,0.8,0.8
				C4.7,19.1,4.4,19.5,3.9,19.5z M3.9,15.3c-0.4,0-0.8-0.4-0.8-0.8c0-0.4,0.4-0.8,0.8-0.8c0.4,0,0.8,0.4,0.8,0.8
				C4.7,14.9,4.4,15.3,3.9,15.3z M3.9,11c-0.4,0-0.8-0.4-0.8-0.8c0-0.4,0.4-0.8,0.8-0.8c0.4,0,0.8,0.4,0.8,0.8
				C4.7,10.6,4.4,11,3.9,11z"/>
		</g>
		<path d="M17.2,9.4c-2.8,0-5.1,2.3-5.1,5.1s2.3,5.1,5.1,5.1s5.1-2.3,5.1-5.1S20,9.4,17.2,9.4z M20.1,13.2l-3.4,3.4
			c-0.1,0.1-0.2,0.1-0.3,0l-2.1-2.1c-0.1-0.1-0.1-0.2,0-0.3l0.5-0.5c0.1-0.1,0.2-0.1,0.3,0l1.4,1.4l2.7-2.7c0.1-0.1,0.2-0.1,0.3,0
			l0.5,0.5C20.2,12.9,20.2,13.1,20.1,13.2z"/>
	</g>
</g>
</svg>
