<?xml version="1.0" encoding="utf-8"?>
<!-- Generator: Adobe Illustrator 25.4.1, SVG Export Plug-In . SVG Version: 6.00 Build 0)  -->
<svg version="1.1" id="Layer_1" xmlns="http://www.w3.org/2000/svg" xmlns:xlink="http://www.w3.org/1999/xlink" x="0px" y="0px"
	 viewBox="0 0 24.3 20.4" style="enable-background:new 0 0 24.3 20.4;" xml:space="preserve">
<path d="M5.5,2.7H0.8C0.3,2.7,0,3,0,3.4c0,0,0,0,0,0v16.2c0,0.4,0.3,0.8,0.8,0.8c0,0,0,0,0,0h4.7c0.4,0,0.8-0.3,0.8-0.8V3.4
	C6.2,3,5.9,2.7,5.5,2.7z M5.2,8.5H1v-3h4.2V8.5z M13,0H8.3C7.9,0,7.5,0.3,7.5,0.8c0,0,0,0,0,0v18.9c0,0.4,0.3,0.8,0.8,0.8
	c0,0,0,0,0,0H13c0.4,0,0.8-0.3,0.8-0.8V0.8C13.8,0.3,13.4,0,13,0z M12.8,5.8H8.5v-3h4.2V5.8z M18.8,0.9l-4.5,1.2
	c-0.4,0.1-0.6,0.5-0.5,0.9l4.5,16.8c0.1,0.4,0.5,0.6,0.9,0.5c0,0,0,0,0,0l4.5-1.2c0.4-0.1,0.6-0.5,0.5-0.9L19.8,1.4
	C19.7,1,19.2,0.8,18.8,0.9C18.8,0.9,18.8,0.9,18.8,0.9z M20.1,6.5L16,7.6l-0.8-2.9l4.1-1.1L20.1,6.5z"/>
</svg>
