<?xml version="1.0" encoding="utf-8"?>
<!-- Generator: Adobe Illustrator 25.4.1, SVG Export Plug-In . SVG Version: 6.00 Build 0)  -->
<svg version="1.1" id="Layer_1" xmlns="http://www.w3.org/2000/svg" xmlns:xlink="http://www.w3.org/1999/xlink" x="0px" y="0px"
	 viewBox="0 0 27.4 19.2" style="enable-background:new 0 0 27.4 19.2;" xml:space="preserve">
<path d="M4.1,8.2c1.5,0,2.7-1.2,2.7-2.7S5.6,2.7,4.1,2.7S1.4,4,1.4,5.5S2.6,8.2,4.1,8.2z M23.3,8.2c1.5,0,2.7-1.2,2.7-2.7
	s-1.2-2.7-2.7-2.7S20.6,4,20.6,5.5S21.8,8.2,23.3,8.2z M24.7,9.6h-2.7c-0.8,0-1.4,0.3-1.9,0.8c1.7,0.9,3,2.7,3.2,4.7h2.8
	c0.8,0,1.4-0.6,1.4-1.4v-1.4C27.4,10.8,26.2,9.6,24.7,9.6z M13.7,9.6c2.7,0,4.8-2.1,4.8-4.8S16.4,0,13.7,0S8.9,2.1,8.9,4.8
	S11.1,9.6,13.7,9.6z M17,11h-0.4c-0.9,0.4-1.9,0.7-2.9,0.7s-2-0.3-2.9-0.7h-0.4c-2.7,0-4.9,2.2-4.9,4.9v1.2c0,1.1,0.9,2.1,2.1,2.1
	h12.3c1.1,0,2.1-0.9,2.1-2.1v-1.2C21.9,13.2,19.7,11,17,11z M7.4,10.4C6.9,9.9,6.2,9.6,5.5,9.6H2.7C1.2,9.6,0,10.8,0,12.3v1.4
	c0,0.8,0.6,1.4,1.4,1.4h2.8C4.5,13.1,5.7,11.3,7.4,10.4L7.4,10.4z"/>
</svg>
