<?xml version="1.0" encoding="utf-8"?>
<!-- Generator: Adobe Illustrator 25.4.1, SVG Export Plug-In . SVG Version: 6.00 Build 0)  -->
<svg version="1.1" id="Layer_1" xmlns="http://www.w3.org/2000/svg" xmlns:xlink="http://www.w3.org/1999/xlink" x="0px" y="0px"
	 viewBox="0 0 24.8 23.6" style="enable-background:new 0 0 24.8 23.6;" xml:space="preserve">
<path d="M24.7,9c-0.1-0.3-0.3-0.5-0.6-0.5l-7.7-1.1l-3.4-7C12.9,0.2,12.7,0,12.4,0c-0.3,0-0.5,0.2-0.7,0.4l-3.4,7L0.6,8.5
	C0.3,8.5,0.1,8.7,0,9C0,9.2,0,9.5,0.2,9.7l5.6,5.4l-1.3,7.7c0,0.3,0.1,0.5,0.3,0.7c0.1,0.1,0.3,0.1,0.4,0.1c0.1,0,0.2,0,0.3-0.1
	l6.9-3.6l6.9,3.6c0.2,0.1,0.5,0.1,0.8-0.1c0.2-0.2,0.3-0.4,0.3-0.7L19,15.1l5.6-5.4C24.8,9.5,24.8,9.2,24.7,9z"/>
</svg>
