<?xml version="1.0" encoding="utf-8"?>
<!-- Generator: Adobe Illustrator 25.4.1, SVG Export Plug-In . SVG Version: 6.00 Build 0)  -->
<svg version="1.1" id="Layer_1" xmlns="http://www.w3.org/2000/svg" xmlns:xlink="http://www.w3.org/1999/xlink" x="0px" y="0px"
	 viewBox="0 0 23.8 17.9" style="enable-background:new 0 0 23.8 17.9;" xml:space="preserve">
<path d="M22.3,10.4c0-3.7-2.3-6.9-5.5-8.3L14.9,6V0.7c0-0.4-0.3-0.7-0.7-0.7H9.7C9.3,0,8.9,0.3,8.9,0.7V6L7,2.2
	c-3.2,1.3-5.5,4.5-5.5,8.3v3h20.8V10.4z M23.1,14.9H0.7c-0.4,0-0.7,0.3-0.7,0.7v1.5c0,0.4,0.3,0.7,0.7,0.7h22.3
	c0.4,0,0.7-0.3,0.7-0.7v-1.5C23.8,15.2,23.5,14.9,23.1,14.9z"/>
</svg>
