<?xml version="1.0" encoding="utf-8"?>
<!-- Generator: Adobe Illustrator 25.4.1, SVG Export Plug-In . SVG Version: 6.00 Build 0)  -->
<svg version="1.1" id="Layer_1" xmlns="http://www.w3.org/2000/svg" xmlns:xlink="http://www.w3.org/1999/xlink" x="0px" y="0px"
	 viewBox="0 0 18.6 23.6" style="enable-background:new 0 0 18.6 23.6;" xml:space="preserve">
<g>
	<g>
		<path d="M5.9,5.1h6.8c0.5,0,0.8-0.4,0.8-0.8V2.5c0-0.5-0.4-0.8-0.8-0.8h-1c-0.3-0.7-0.8-1.3-1.5-1.5C8.8-0.3,7.4,0.4,6.9,1.7h-1
			c-0.5,0-0.8,0.4-0.8,0.8v1.7C5.1,4.7,5.4,5.1,5.9,5.1z"/>
		<path d="M16,2.5h-0.8v1.7c0,1.4-1.1,2.5-2.5,2.5H5.9c-1.4,0-2.5-1.1-2.5-2.5V2.5H2.5C1.1,2.5,0,3.7,0,5.1v16
			c0,1.4,1.1,2.5,2.5,2.5H16c1.4,0,2.5-1.1,2.5-2.5v-16C18.6,3.7,17.4,2.5,16,2.5z M14.2,12.3l-5.4,5.4c-0.1,0.1-0.4,0.1-0.5,0
			l-3.3-3.3c-0.1-0.1-0.1-0.4,0-0.5l0.8-0.8c0.1-0.1,0.4-0.1,0.5,0l2.2,2.2l4.3-4.3c0.1-0.1,0.4-0.1,0.5,0l0.8,0.8
			C14.4,11.9,14.4,12.2,14.2,12.3z"/>
	</g>
</g>
</svg>
