<?xml version="1.0" encoding="utf-8"?>
<!-- Generator: Adobe Illustrator 25.4.1, SVG Export Plug-In . SVG Version: 6.00 Build 0)  -->
<svg version="1.1" id="Layer_1" xmlns="http://www.w3.org/2000/svg" xmlns:xlink="http://www.w3.org/1999/xlink" x="0px" y="0px"
	 viewBox="0 0 23.8 20.6" style="enable-background:new 0 0 23.8 20.6;" xml:space="preserve">
<g id="Briefcase_3_" transform="translate(-61.279 16.412)">
	<rect id="Rectangle_9_1_" x="72.3" y="-5.4" width="1.7" height="2.1"/>
	<path id="Path_296_1_" d="M82.5-13.4H77v-1.9c0-0.6-0.5-1.1-1.1-1.1h-5.4c-0.6,0-1.1,0.5-1.1,1.1v1.9h-5.5c-1.4,0-2.6,1.1-2.6,2.5
		l0,0c0.4,1.1,1.4,2.2,3,3.2c2,1.2,4.3,2,6.7,2.2v-0.8c0-0.4,0.3-0.7,0.7-0.7c0,0,0,0,0,0h3.1c0.4,0,0.7,0.3,0.7,0.7v0.9
		c2.2-0.2,4.3-0.8,6.3-1.8c1.4-0.6,2.6-1.7,3.4-3v-0.7C85.1-12.2,83.9-13.4,82.5-13.4z M70.7-13.4V-15h4.9v1.7H70.7z"/>
	<path id="Path_297_1_" d="M75.4-3.8v1.3c0,0.4-0.3,0.7-0.7,0.7h-3.1c-0.4,0-0.7-0.3-0.7-0.7v0v-1.4c-2.6-0.3-5.1-1.1-7.4-2.5
		c-0.8-0.5-1.6-1.1-2.3-1.8v9.7c0,1.4,1.2,2.5,2.6,2.5h0h18.7c1.4,0,2.6-1.1,2.6-2.5v0v-9.3c-0.8,0.8-1.7,1.4-2.7,1.9
		C80.2-4.6,77.8-4,75.4-3.8z"/>
</g>
</svg>
