<?xml version="1.0" encoding="utf-8"?>
<!-- Generator: Adobe Illustrator 25.2.3, SVG Export Plug-In . SVG Version: 6.00 Build 0)  -->
<svg version="1.1" id="Layer_1" xmlns="http://www.w3.org/2000/svg" xmlns:xlink="http://www.w3.org/1999/xlink" x="0px" y="0px"
	 viewBox="0 0 101.8 27.4" style="enable-background:new 0 0 101.8 27.4;" xml:space="preserve">
<g id="Layer_2_1_">
	<g id="Layer_1-2">
		<path d="M45.6,25.3c-1.2,0-2.5-0.2-3.6-0.6c-1.2-0.4-2.4-1-3.4-1.9l1.7-2.6c0.8,0.6,1.8,1.1,2.7,1.5c0.9,0.3,1.8,0.5,2.7,0.5
			c0.7,0,1.3-0.1,1.9-0.5c0.4-0.3,0.7-0.8,0.7-1.3v-0.1c0-0.3-0.1-0.6-0.3-0.8c-0.2-0.3-0.5-0.5-0.8-0.6c-0.4-0.2-0.8-0.4-1.2-0.5
			c-0.5-0.1-0.9-0.3-1.4-0.4c-0.6-0.2-1.2-0.4-1.8-0.6c-0.6-0.2-1.2-0.5-1.7-0.9c-0.5-0.4-0.9-0.8-1.2-1.4c-0.3-0.6-0.5-1.3-0.5-2
			v-0.1c0-1.4,0.6-2.8,1.7-3.7c0.6-0.4,1.2-0.8,1.9-1c0.7-0.2,1.5-0.3,2.3-0.3c1.1,0,2.1,0.2,3.2,0.5c1,0.3,2,0.8,2.9,1.4l-1.5,2.7
			c-0.8-0.5-1.6-0.9-2.4-1.1c-0.7-0.3-1.5-0.4-2.3-0.4c-0.6,0-1.2,0.1-1.7,0.5c-0.4,0.3-0.6,0.7-0.6,1.2v0.1c0,0.3,0.1,0.6,0.3,0.8
			c0.2,0.2,0.5,0.4,0.8,0.6c0.4,0.2,0.8,0.4,1.2,0.5c0.4,0.1,0.9,0.3,1.4,0.5c0.6,0.2,1.2,0.4,1.8,0.7c0.6,0.2,1.1,0.6,1.6,0.9
			c0.5,0.4,0.9,0.8,1.2,1.3c0.3,0.6,0.5,1.2,0.5,1.9v0.1c0,0.8-0.1,1.6-0.5,2.3C51,23,50.6,23.6,50,24c-0.6,0.4-1.3,0.8-2,1
			C47.3,25.2,46.5,25.3,45.6,25.3"/>
		<path d="M64.4,22c0.6,0,1.3-0.1,1.8-0.4c0.6-0.2,1.1-0.6,1.5-1c0.4-0.5,0.8-1,1-1.7c0.3-0.7,0.4-1.5,0.4-2.2v-0.1
			c0-0.7-0.1-1.5-0.4-2.2c-0.2-0.6-0.6-1.2-1-1.7c-0.9-0.9-2.1-1.4-3.3-1.4c-0.6,0-1.3,0.1-1.9,0.4c-0.6,0.2-1.1,0.6-1.5,1.1
			c-0.5,0.5-0.8,1.1-1.1,1.7c-0.3,0.7-0.4,1.4-0.4,2.2v0.1c0,0.7,0.1,1.5,0.4,2.2c0.2,0.6,0.6,1.2,1.1,1.7
			C61.9,21.5,63.1,22,64.4,22 M65.2,25.3c-1.2,0-2.4-0.3-3.4-0.9c-0.9-0.5-1.6-1.2-2.2-2V25h-3.8V2.1h3.8v9.1
			c0.6-0.9,1.4-1.6,2.3-2.2c1-0.6,2.2-0.9,3.4-0.9c1,0,1.9,0.2,2.9,0.6c0.9,0.4,1.8,0.9,2.5,1.7c0.8,0.8,1.3,1.7,1.7,2.7
			c0.5,1.2,0.7,2.4,0.7,3.7v0.1c0,1.3-0.2,2.5-0.6,3.7c-0.4,1-1,1.9-1.7,2.7c-0.7,0.7-1.5,1.3-2.5,1.7
			C67.2,25.1,66.2,25.3,65.2,25.3"/>
		<path d="M76.6,8.4h3.8v2.5c0.3-0.4,0.6-0.7,0.9-1.1c0.3-0.3,0.7-0.6,1.1-0.9c0.4-0.3,0.9-0.5,1.4-0.6c0.6-0.2,1.1-0.2,1.7-0.2
			c1.1,0,2.1,0.2,3,0.8c0.8,0.5,1.5,1.2,1.9,2.1c0.6-0.9,1.4-1.6,2.4-2.1c1-0.6,2.1-0.8,3.2-0.8c1.6-0.1,3.1,0.5,4.3,1.6
			c1.1,1.3,1.6,3,1.5,4.7V25H98v-9.4c0.1-1.1-0.2-2.1-0.9-3c-0.6-0.7-1.5-1.1-2.5-1c-1,0-1.9,0.3-2.6,1.1c-0.7,0.9-1.1,2-1,3.1V25
			h-3.8v-9.4c0.1-1.1-0.2-2.1-0.9-3c-0.6-0.7-1.5-1.1-2.5-1c-1,0-1.9,0.4-2.6,1.1c-0.7,0.9-1,1.9-1,3V25h-3.8V8.4z"/>
		<path d="M23.1,17.3c0,8.4-21.9,9-21.9,9c9.3,1.7,18.8,1.4,28-0.8C27.4,22.6,25.3,19.9,23.1,17.3"/>
		<path d="M15.2,0c-1.6,3-2.9,6.2-4,9.4c7.3-4.2,18.8,14.5,18.8,14.5C26.9,14.9,21.9,6.7,15.2,0"/>
		<path d="M13.3,0.3C4,11.2,0,25,0,25c3.4-0.1,6.8-0.5,10.2-1.2C2.9,19.6,13.3,0.3,13.3,0.3"/>
	</g>
</g>
</svg>
